<svg width="82" height="100" viewBox="0 0 82 100" fill="none" xmlns="http://www.w3.org/2000/svg">
<path d="M54.314 33.1679C54.1845 34.6787 55.0691 35.9322 55.5276 36.3702C56.067 35.8228 57.1782 34.4159 57.3076 33.1679C57.4371 31.9198 55.9591 30.294 55.204 29.6371C54.8803 30.1298 54.4758 31.2793 54.314 33.1679Z" fill="#E2E2E2"/>
<path d="M50.3494 20.605C51.9028 22.0502 52.2373 24.5463 52.2103 25.6137C53.0194 24.7926 53.5858 22.4115 53.6667 21.2619C53.7476 20.1124 51.9675 16.1711 50.5921 15.0216C49.4917 14.1019 48.0299 11.5729 47.4366 10.4234C47.032 14.5289 48.4075 18.7986 50.3494 20.605Z" fill="#E2E2E2"/>
<path d="M30.1218 68.8036C30.5101 70.5772 31.8479 71.9511 32.4682 72.4164H30.1218C29.5015 72.4164 27.8239 72.1208 26.0763 70.9385C23.8917 69.4605 21.4644 67.6541 21.6262 60.4284C21.7556 54.6478 24.1614 51.2868 25.3481 50.3288C25.0784 52.0805 23.568 56.6513 25.6717 61.8243C27.6945 67.4898 29.6363 66.5866 30.1218 68.8036Z" fill="#E2E2E2"/>
<path d="M27.6135 39.4082C26.5132 41.3789 27.155 44.3348 27.6135 45.5665C28.4226 41.5431 31.2545 39.4082 31.74 37.1092C32.2254 34.8101 32.0636 31.6899 31.74 33.1679C31.4811 34.3503 30.2836 35.5217 29.7172 35.9596C29.4745 36.2881 28.5845 36.9449 27.6135 39.4082Z" fill="#E2E2E2"/>
<path d="M27.6945 52.71C26.141 56.5199 28.3418 61.6327 29.6363 63.7128C29.6363 58.4577 30.6072 57.3082 31.0118 55.3376C31.4163 53.3669 37.3228 45.7307 39.1028 43.5958C40.8828 41.461 41.3683 37.2734 40.721 32.7573C40.2032 29.1445 36.244 25.2853 34.3291 23.8073C36.7564 26.9275 37.4846 32.1004 36.8373 35.7133C36.3195 38.6035 33.3312 42.939 31.9018 44.7454C31.1466 45.8128 29.1508 47.8656 27.6945 52.71Z" fill="#E2E2E2"/>
<path d="M51.6439 58.5398C51.9676 59.2624 52.1563 61.14 52.2103 61.9885C53.4509 60.0999 56.0778 56.0437 56.6604 54.927C57.3885 53.5311 57.3886 50.0825 57.1458 46.716C56.9516 44.0228 54.9073 41.2694 53.9094 40.2293C54.7185 47.8656 51.9676 51.15 50.9966 52.5458C50.0257 53.9417 51.2394 57.6366 51.6439 58.5398Z" fill="#E2E2E2"/>
<path d="M36.5137 67.9004C36.3842 70.1338 37.8622 73.5386 38.6174 74.9618C37.9161 74.5513 36.0444 73.0897 34.1673 70.5279C31.8209 67.3256 31.6591 62.8917 32.4682 58.1293C33.2773 53.3669 39.4265 47.0445 41.4492 43.9243C43.472 40.8041 44.4429 39.1619 44.362 33.3321C44.2811 27.5023 42.8247 29.8835 40.0737 20.4408C37.3228 10.9982 40.3974 3.77249 41.4492 1.63763C42.2907 -0.07026 43.2023 -0.114052 43.5529 0.0775378C43.0944 0.953378 42.0965 3.26341 41.7729 5.4968C41.4492 7.73019 41.9077 10.6971 42.1774 11.9014C42.6629 14.9394 47.5984 24.0537 49.4593 27.0917C51.168 29.8811 51.6439 35.8775 51.2394 40.2293C50.9157 43.7108 47.922 48.1392 46.4657 49.9183C44.362 52.7921 39.8472 58.9504 38.6174 60.5926C37.0801 62.6454 36.6755 65.1086 36.5137 67.9004Z" fill="#E2E2E2"/>
<path d="M52.7767 68.0646L50.8348 72.5807L52.5709 72.4605C53.7766 72.3771 54.9568 72.0691 56.0526 71.5519L56.4213 71.3778C57.3799 70.9254 58.2385 70.2811 58.9458 69.4836C59.6795 68.6563 60.2343 67.6821 60.5743 66.6239L60.6687 66.3301C61.0667 65.0914 61.2073 63.7823 61.0817 62.4855L61.0633 62.2963C60.8824 60.4294 60.204 58.6477 59.101 57.1424L58.4404 56.2408L58.5196 57.9291C58.7179 62.1553 56.4757 66.1126 52.7767 68.0646Z" fill="#E2E2E2"/>
<path d="M46.9511 52.2174L46.5773 54.9814C46.4498 55.9241 46.1708 56.8392 45.7515 57.6902L45.3037 58.5991C44.9473 59.3224 44.4933 59.9918 43.9548 60.588L42.0965 62.6453L41.351 63.7308C40.6167 64.7999 40.1284 66.0227 39.9221 67.309L39.874 67.6085C39.7382 68.4553 39.7265 69.3179 39.8393 70.1681L40.0826 72.0027C40.1841 72.7678 40.3855 73.5158 40.6814 74.227L41.7728 76.8504C42.2512 76.1491 42.8891 75.5751 43.6324 75.177L44.6057 74.6557C45.1429 74.3679 45.6485 74.0231 46.1139 73.627L46.5583 73.2487C47.4579 72.4831 48.1929 71.5381 48.718 70.4724L49.1629 69.5694C49.6789 68.5222 49.9813 67.3802 50.0522 66.2116L50.1946 63.8632C50.2436 63.0553 50.1812 62.2443 50.0094 61.4538L49.0548 57.0619L48.4664 55.2163C48.2659 54.5875 47.9956 53.9841 47.6606 53.4174L46.9511 52.2174Z" fill="#E2E2E2"/>
<path d="M21.8529 57.8129L21.8689 57.8009C22.0307 60.3463 23.2606 66.1925 26.8853 69.2142C29.5755 71.4567 31.1248 72.24 31.8772 72.4164H30.1218C29.5015 72.4164 27.8239 72.1208 26.0763 70.9385C23.8917 69.4605 21.4644 67.6541 21.6262 60.4284C21.6471 59.4932 21.7276 58.6214 21.8529 57.8129Z" fill="#1E1E1E" fill-opacity="0.15"/>
<path d="M44.3147 35.9263C44.3597 35.1606 44.3755 34.3046 44.362 33.3321C44.3191 30.2385 43.8888 29.4571 43.0833 27.9941C42.3709 26.7 41.3649 24.8728 40.0737 20.4408C39.7246 19.2425 39.4693 18.0799 39.2918 16.9588C39.4622 16.9665 39.841 17.1146 40.5592 17.6491C41.7728 18.5523 44.6856 25.9422 45.4947 29.555C46.142 32.4453 45.0632 34.9743 44.4429 35.8775L44.3147 35.9263Z" fill="#1E1E1E" fill-opacity="0.15"/>
<path d="M40.3388 41.2318L40.3165 41.0504C35.8664 42.6105 30.6072 51.15 29.4745 54.4344C28.6215 56.9077 28.965 61.216 29.5226 63.5261C29.5612 63.5907 29.5991 63.653 29.6363 63.7128C29.6363 59.8593 30.1584 58.2135 30.5964 56.8326C30.7557 56.3303 30.9039 55.8632 31.0118 55.3376C31.4163 53.3669 37.3228 45.7307 39.1028 43.5958C39.6248 42.9698 40.0354 42.1673 40.3388 41.2318Z" fill="#1E1E1E" fill-opacity="0.15"/>
<path d="M2.11101 99.6322C1.86744 99.8774 1.57424 100 1.23142 100C0.888611 100 0.599925 99.8774 0.365368 99.6322C0.121789 99.3961 0 99.1054 0 98.7603V81.6908C0 81.3547 0.121789 81.0641 0.365368 80.8189C0.599925 80.5737 0.888611 80.4511 1.23142 80.4511H12.8826C13.2254 80.4511 13.5186 80.5737 13.7622 80.8189C14.0058 81.0641 14.1276 81.3547 14.1276 81.6908C14.1276 82.0359 14.0058 82.3311 13.7622 82.5763C13.5186 82.8215 13.2254 82.9441 12.8826 82.9441H2.47638V88.979H10.0679C10.4017 88.979 10.6904 89.1017 10.934 89.3469C11.1775 89.5921 11.2993 89.8872 11.2993 90.2324C11.2993 90.5684 11.1775 90.859 10.934 91.1042C10.6904 91.3494 10.4017 91.472 10.0679 91.472H2.47638V98.7603C2.47638 99.1054 2.35459 99.3961 2.11101 99.6322Z" fill="#E2E2E2"/>
<path d="M29.9936 85.0829C28.5863 83.657 26.8812 82.9441 24.8785 82.9441C22.8847 82.9441 21.1797 83.657 19.7633 85.0829C18.356 86.4997 17.6523 88.2162 17.6523 90.2324C17.6523 92.2395 18.356 93.956 19.7633 95.3818C21.1797 96.7986 22.8847 97.507 24.8785 97.507C26.8812 97.507 28.5863 96.7986 29.9936 95.3818C31.41 93.956 32.1182 92.2395 32.1182 90.2324C32.1182 88.2162 31.41 86.4997 29.9936 85.0829ZM31.7528 97.1392C29.8583 99.0464 27.5669 100 24.8785 100C22.1991 100 19.9122 99.0464 18.0177 97.1392C16.1232 95.232 15.1759 92.9297 15.1759 90.2324C15.1759 87.5259 16.1232 85.2191 18.0177 83.3119C19.9122 81.4047 22.1991 80.4511 24.8785 80.4511C27.5669 80.4511 29.8583 81.4047 31.7528 83.3119C33.6473 85.2191 34.5945 87.5259 34.5945 90.2324C34.5945 92.9297 33.6473 95.232 31.7528 97.1392Z" fill="#E2E2E2"/>
<path d="M47.4971 89.5785C48.2458 88.8156 48.6202 87.8983 48.6202 86.8266C48.6202 85.755 48.2458 84.8377 47.4971 84.0748C46.7393 83.321 45.8281 82.9441 44.7636 82.9441H39.486V90.7092H44.7636C45.8281 90.7092 46.7393 90.3323 47.4971 89.5785ZM39.1207 99.6322C38.8771 99.8774 38.5839 100 38.2411 100C37.8983 100 37.6096 99.8774 37.375 99.6322C37.1314 99.3961 37.0097 99.1054 37.0097 98.7603V81.6908C37.0097 81.3547 37.1314 81.0641 37.375 80.8189C37.6096 80.5737 37.8983 80.4511 38.2411 80.4511H44.7636C46.5137 80.4511 48.0068 81.0732 49.2427 82.3174C50.4786 83.5707 51.0966 85.0738 51.0966 86.8266C51.0966 88.2797 50.6546 89.5785 49.7705 90.7228C48.9044 91.8489 47.7948 92.5982 46.4416 92.9706L50.9613 97.9157C51.1959 98.17 51.3086 98.4652 51.2996 98.8012C51.2816 99.1463 51.1462 99.4369 50.8936 99.673C50.6591 99.891 50.3794 100 50.0546 100C49.6938 100 49.3916 99.8683 49.148 99.6049L43.2886 93.2022H39.486V98.7603C39.486 99.1054 39.3642 99.3961 39.1207 99.6322Z" fill="#E2E2E2"/>
<path d="M60.0748 97.8612C58.6584 99.2871 56.9534 100 54.9597 100C54.6168 100 54.3282 99.8774 54.0936 99.6322C53.85 99.3961 53.7282 99.1054 53.7282 98.7603C53.7282 98.4152 53.85 98.12 54.0936 97.8748C54.3282 97.6296 54.6168 97.507 54.9597 97.507C56.2768 97.507 57.4 97.0393 58.3292 96.1038C59.2674 95.1684 59.7365 94.0377 59.7365 92.7117V81.6908C59.7365 81.3547 59.8538 81.0641 60.0883 80.8189C60.3319 80.5737 60.6251 80.4511 60.9679 80.4511C61.3107 80.4511 61.5994 80.5737 61.834 80.8189C62.0776 81.0641 62.1994 81.3547 62.1994 81.6908V92.7117C62.1994 94.7188 61.4912 96.4353 60.0748 97.8612Z" fill="#E2E2E2"/>
<path d="M70.298 91.8262H76.401L73.3427 84.7968L70.298 91.8262ZM74.4794 81.2004L81.895 98.2563C82.0303 98.565 82.0348 98.8829 81.9085 99.2099C81.7913 99.5277 81.5748 99.7548 81.259 99.891C81.0966 99.9637 80.9297 100 80.7583 100C80.226 100 79.8517 99.7502 79.6351 99.2507L77.4835 94.3056H69.2154L67.0638 99.2507C66.9285 99.5686 66.7029 99.7866 66.3872 99.9046C66.0714 100.032 65.7557 100.027 65.4399 99.891C65.1242 99.7548 64.9077 99.5277 64.7904 99.2099C64.6641 98.8829 64.6686 98.565 64.8039 98.2563L72.2195 81.2004C72.436 80.7008 72.8104 80.4511 73.3427 80.4511C73.884 80.4511 74.2629 80.7008 74.4794 81.2004Z" fill="#E2E2E2"/>
</svg>
